<mxfile host="app.diagrams.net" modified="2023-12-23T14:08:41.611Z" agent="Mozilla/5.0 (Windows NT 10.0; Win64; x64) AppleWebKit/537.36 (KHTML, like Gecko) Chrome/120.0.0.0 Safari/537.36 Edg/120.0.0.0" version="22.1.11" etag="ol0pixbTKieRaaNN7aIr" type="github">
  <diagram name="第 1 页" id="n8gh3igKdaO5uhaC8ERB">
    <mxGraphModel>
      <root>
        <mxCell id="0" />
        <mxCell id="1" parent="0" />
      </root>
    </mxGraphModel>
  </diagram>
</mxfile>
